<svg xmlns="http://www.w3.org/2000/svg" xmlns:xlink="http://www.w3.org/1999/xlink" x="0px" y="0px" width="40px" height="40px" viewBox="0 0 40 40"><g  transform="translate(4, 4)">
<path data-cap="butt" data-color="color-2" fill="none" stroke="#3f8654" stroke-width="2" stroke-miterlimit="10" d="M17,23H2c-0.6,0-1-0.4-1-1V2
	c0-0.6,0.4-1,1-1h28c0.6,0,1,0.4,1,1v20c0,0.6-0.4,1-1,1h-2" stroke-linejoin="miter" stroke-linecap="butt"/>
<polyline data-cap="butt" data-color="color-2" fill="none" stroke="#3f8654" stroke-width="2" stroke-miterlimit="10" points="17,19 7,19 7,5 27,5 
	27,13 " stroke-linejoin="miter" stroke-linecap="butt"/>
<path fill="none" stroke="#505269" stroke-width="2" stroke-linecap="square" stroke-miterlimit="10" d="M27,31h-9c-0.6,0-1-0.4-1-1
	V14c0-0.6,0.4-1,1-1h9c0.6,0,1,0.4,1,1v16C28,30.6,27.6,31,27,31z" stroke-linejoin="miter"/>
<line data-color="color-2" fill="none" stroke="#3f8654" stroke-width="2" stroke-linecap="square" stroke-miterlimit="10" x1="4" y1="11" x2="4" y2="13" stroke-linejoin="miter"/>
<line fill="none" stroke="#505269" stroke-width="2" stroke-linecap="square" stroke-miterlimit="10" x1="17" y1="17" x2="28" y2="17" stroke-linejoin="miter"/>
<line fill="none" stroke="#505269" stroke-width="2" stroke-linecap="square" stroke-miterlimit="10" x1="17" y1="25" x2="28" y2="25" stroke-linejoin="miter"/>
<line fill="none" stroke="#505269" stroke-width="2" stroke-linecap="square" stroke-miterlimit="10" x1="22" y1="28" x2="23" y2="28" stroke-linejoin="miter"/>
</g></svg>