<svg xmlns="http://www.w3.org/2000/svg" xmlns:xlink="http://www.w3.org/1999/xlink" x="0px" y="0px" width="40px" height="40px" viewBox="0 0 40 40"><g  transform="translate(4, 4)">
<line data-cap="butt" data-color="color-2" fill="none" stroke="#3f8654" stroke-width="2" stroke-miterlimit="10" x1="23" y1="28" x2="29" y2="22" stroke-linejoin="miter" stroke-linecap="butt"/>
<line data-cap="butt" data-color="color-2" fill="none" stroke="#3f8654" stroke-width="2" stroke-miterlimit="10" x1="12" y1="5" x2="6" y2="11" stroke-linejoin="miter" stroke-linecap="butt"/>
<polyline data-color="color-2" fill="none" stroke="#3f8654" stroke-width="2" stroke-linecap="square" stroke-miterlimit="10" points="
	9.5,14.5 3,8 9,2 15.5,8.5 " stroke-linejoin="miter"/>
<polyline data-color="color-2" fill="none" stroke="#3f8654" stroke-width="2" stroke-linecap="square" stroke-miterlimit="10" points="
	22.5,15.5 29,22 30,29 23,28 16.5,21.5 " stroke-linejoin="miter"/>
<polygon fill="none" stroke="#505269" stroke-width="2" stroke-linecap="square" stroke-miterlimit="10" points="9,29 2,22 22,2 
	22,2 29,9 " stroke-linejoin="miter"/>
<line fill="none" stroke="#505269" stroke-width="2" stroke-linecap="square" stroke-miterlimit="10" x1="12" y1="12" x2="15" y2="15" stroke-linejoin="miter"/>
<line fill="none" stroke="#505269" stroke-width="2" stroke-linecap="square" stroke-miterlimit="10" x1="9" y1="15" x2="11" y2="17" stroke-linejoin="miter"/>
<line fill="none" stroke="#505269" stroke-width="2" stroke-linecap="square" stroke-miterlimit="10" x1="18" y1="6" x2="21" y2="9" stroke-linejoin="miter"/>
<line fill="none" stroke="#505269" stroke-width="2" stroke-linecap="square" stroke-miterlimit="10" x1="15" y1="9" x2="17" y2="11" stroke-linejoin="miter"/>
<line fill="none" stroke="#505269" stroke-width="2" stroke-linecap="square" stroke-miterlimit="10" x1="6" y1="18" x2="9" y2="21" stroke-linejoin="miter"/></g></svg>