<svg xmlns="http://www.w3.org/2000/svg" xmlns:xlink="http://www.w3.org/1999/xlink" x="0px" y="0px" width="40px" height="40px" viewBox="0 0 40 40"><g  transform="translate(4, 4)">
<polyline data-cap="butt" fill="none" stroke="#505269" stroke-width="2" stroke-miterlimit="10" points="14.1,18 7,18 7,12 13.8,12 
	" stroke-linejoin="miter" stroke-linecap="butt"/>
<circle fill="none" stroke="#505269" stroke-width="2" stroke-linecap="square" stroke-miterlimit="10" cx="13" cy="27" r="1" stroke-linejoin="miter"/>
<line data-cap="butt" fill="none" stroke="#505269" stroke-width="2" stroke-miterlimit="10" x1="3" y1="23" x2="19.1" y2="23" stroke-linejoin="miter" stroke-linecap="butt"/>
<line fill="none" stroke="#505269" stroke-width="2" stroke-linecap="square" stroke-miterlimit="10" x1="3" y1="6" x2="23" y2="6" stroke-linejoin="miter"/>
<path data-cap="butt" fill="none" stroke="#505269" stroke-width="2" stroke-miterlimit="10" d="M23,26.9V29c0,1.1-0.9,2-2,2H5
	c-1.1,0-2-0.9-2-2V3c0-1.1,0.9-2,2-2h16c1.1,0,2,0.9,2,2v14.1" stroke-linejoin="miter" stroke-linecap="butt"/>
<path data-color="color-2" fill="none" stroke="#3f8654" stroke-width="2" stroke-linecap="square" stroke-miterlimit="10" d="M25.1,29
	L13.4,17.3c-1.4-1.4-1.4-3.6,0-4.9l0,0c1.4-1.4,3.6-1.4,4.9,0L30,24.1" stroke-linejoin="miter"/>
<line data-color="color-2" fill="none" stroke="#3f8654" stroke-width="2" stroke-linecap="square" stroke-miterlimit="10" x1="16.6" y1="16.3" x2="17.3" y2="15.6" stroke-linejoin="miter"/>
</g></svg>