<?xml version="1.0" encoding="utf-8"?>
<!-- Generator: Adobe Illustrator 18.1.1, SVG Export Plug-In . SVG Version: 6.00 Build 0)  -->
<!DOCTYPE svg PUBLIC "-//W3C//DTD SVG 1.1//EN" "http://www.w3.org/Graphics/SVG/1.1/DTD/svg11.dtd">
<svg version="1.1" id="Layer_1" xmlns="http://www.w3.org/2000/svg" xmlns:xlink="http://www.w3.org/1999/xlink" x="0px" y="0px"
	 width="40px" height="40px" viewBox="4 -4 40 40" enable-background="new 4 -4 40 40" xml:space="preserve">
<g transform="translate(4, 4)">
	<path fill="none" stroke="#505269" stroke-width="2" stroke-miterlimit="10" d="M33.4,5.2c1,2,1.6,4.4,1.6,6.8c0,8.3-6.7,15-15,15
		S5,20.3,5,12S11.7-3,20-3c2.9,0,5.7,0.8,8,2.3"/>
	<circle fill="none" stroke="#3F8654" stroke-width="2" stroke-linecap="square" stroke-miterlimit="10" cx="31" cy="2" r="4"/>
	<path fill="none" stroke="#3F8654" stroke-width="2" stroke-linecap="square" stroke-miterlimit="10" d="M20,13L20,13
		c-1.7,0-3-1.3-3-3V8c0-1.7,1.3-3,3-3l0,0c1.7,0,3,1.3,3,3v2C23,11.7,21.7,13,20,13z"/>
	<path fill="none" stroke="#3F8654" stroke-width="2" stroke-linecap="square" stroke-miterlimit="10" d="M26,18H14v-1
		c0-2.2,1.8-4,4-4h4c2.2,0,4,1.8,4,4V18z"/>
</g>
</svg>
