<svg xmlns="http://www.w3.org/2000/svg" xmlns:xlink="http://www.w3.org/1999/xlink" x="0px" y="0px" width="40px" height="40px" viewBox="0 0 40 40"><g  transform="translate(4, 4)">
<rect x="1" y="1" fill="none" stroke="#505269" stroke-width="2" stroke-linecap="square" stroke-miterlimit="10" width="30" height="30" stroke-linejoin="miter"/>
<polygon data-color="color-2" fill="none" stroke="#3f8654" stroke-width="2" stroke-linecap="square" stroke-miterlimit="10" points="
	13,12 19,16 13,20 " stroke-linejoin="miter"/>
<line fill="none" stroke="#505269" stroke-width="2" stroke-linecap="square" stroke-miterlimit="10" x1="1" y1="6" x2="31" y2="6" stroke-linejoin="miter"/>
<line fill="none" stroke="#505269" stroke-width="2" stroke-linecap="square" stroke-miterlimit="10" x1="1" y1="26" x2="31" y2="26" stroke-linejoin="miter"/>
<line fill="none" stroke="#505269" stroke-width="2" stroke-linecap="square" stroke-miterlimit="10" x1="6" y1="1" x2="6" y2="6" stroke-linejoin="miter"/>
<line fill="none" stroke="#505269" stroke-width="2" stroke-linecap="square" stroke-miterlimit="10" x1="11" y1="1" x2="11" y2="6" stroke-linejoin="miter"/>
<line fill="none" stroke="#505269" stroke-width="2" stroke-linecap="square" stroke-miterlimit="10" x1="16" y1="1" x2="16" y2="6" stroke-linejoin="miter"/>
<line fill="none" stroke="#505269" stroke-width="2" stroke-linecap="square" stroke-miterlimit="10" x1="21" y1="1" x2="21" y2="6" stroke-linejoin="miter"/>
<line fill="none" stroke="#505269" stroke-width="2" stroke-linecap="square" stroke-miterlimit="10" x1="26" y1="1" x2="26" y2="6" stroke-linejoin="miter"/>
<line fill="none" stroke="#505269" stroke-width="2" stroke-linecap="square" stroke-miterlimit="10" x1="6" y1="26" x2="6" y2="31" stroke-linejoin="miter"/>
<line fill="none" stroke="#505269" stroke-width="2" stroke-linecap="square" stroke-miterlimit="10" x1="11" y1="26" x2="11" y2="31" stroke-linejoin="miter"/>
<line fill="none" stroke="#505269" stroke-width="2" stroke-linecap="square" stroke-miterlimit="10" x1="16" y1="26" x2="16" y2="31" stroke-linejoin="miter"/>
<line fill="none" stroke="#505269" stroke-width="2" stroke-linecap="square" stroke-miterlimit="10" x1="21" y1="26" x2="21" y2="31" stroke-linejoin="miter"/>
<line fill="none" stroke="#505269" stroke-width="2" stroke-linecap="square" stroke-miterlimit="10" x1="26" y1="26" x2="26" y2="31" stroke-linejoin="miter"/>
</g></svg>